<svg width="32" height="32" viewBox="0 0 32 32" fill="none" xmlns="http://www.w3.org/2000/svg">
<path fill-rule="evenodd" clip-rule="evenodd" d="M2.59355 9.90001C2.59355 9.53126 2.89517 9.2297 3.26387 9.2297H7.95605V14.5922H2.59355V9.90001ZM9.29668 9.2297H14.6592V14.5922H9.29668V9.2297ZM15.9998 9.2297H21.3623V14.5922H15.9998V9.2297ZM22.7029 9.2297H27.1605C27.7973 9.2297 28.3671 9.69883 28.4676 10.3355L29.2385 15.0949C29.3055 15.5977 29.3726 16.1004 29.3726 16.6031H24.7139L22.7029 14.5922V9.2297ZM1.25293 9.2297V21.2953C1.25293 22.0326 1.85621 22.6359 2.59355 22.6359H2.66059C2.62709 22.4348 2.59355 22.2002 2.59355 21.9656C2.59355 20.1223 4.10177 18.6141 5.94512 18.6141C7.78849 18.6141 9.29668 20.1223 9.29668 21.9656C9.29668 22.2002 9.26319 22.4348 9.22965 22.6359H21.4293C21.3958 22.4348 21.3623 22.2002 21.3623 21.9656C21.3623 20.1223 22.8705 18.6141 24.7139 18.6141C26.5572 18.6141 28.0654 20.1223 28.0654 21.9656C28.0654 22.2002 28.0319 22.4348 27.9984 22.6359H29.4061C30.1434 22.6359 30.7467 22.0326 30.7467 21.2953V17.0053C30.7467 16.3014 30.6796 15.5641 30.5791 14.8602L29.8082 10.0676C29.5736 8.79395 28.4676 7.85547 27.1605 7.85547H2.59355C1.85621 7.88907 1.25293 8.49218 1.25293 9.2297Z" fill="#0065C1"/>
<path fill-rule="evenodd" clip-rule="evenodd" d="M27.0604 21.9652C27.0604 23.2609 26.01 24.3113 24.7143 24.3113C23.4185 24.3113 22.3682 23.2609 22.3682 21.9652C22.3682 20.6696 23.4185 19.6191 24.7143 19.6191C26.01 19.6191 27.0604 20.6696 27.0604 21.9652Z" fill="#0065C1"/>
<path fill-rule="evenodd" clip-rule="evenodd" d="M8.29082 21.9652C8.29082 23.2609 7.24046 24.3113 5.94473 24.3113C4.649 24.3113 3.59863 23.2609 3.59863 21.9652C3.59863 20.6696 4.649 19.6191 5.94473 19.6191C7.24046 19.6191 8.29082 20.6696 8.29082 21.9652Z" fill="#0065C1"/>
</svg>
