<svg width="32" height="33" viewBox="0 0 32 33" fill="none" xmlns="http://www.w3.org/2000/svg">
<path d="M16 5C13.6266 5 11.3066 5.70379 9.33316 7.02236C7.35977 8.34094 5.8217 10.2151 4.91345 12.4078C4.0052 14.6005 3.76756 17.0133 4.23058 19.3411C4.6936 21.6689 5.83649 23.807 7.51472 25.4853C9.19295 27.1635 11.3311 28.3064 13.6589 28.7694C15.9867 29.2324 18.3995 28.9948 20.5922 28.0865C22.7849 27.1783 24.6591 25.6402 25.9776 23.6668C27.2962 21.6935 28 19.3734 28 17C27.9962 13.8186 26.7308 10.7685 24.4811 8.51886C22.2315 6.26924 19.1814 5.00375 16 5ZM20.044 21.044C19.8394 21.2485 19.562 21.3634 19.2727 21.3634C18.9835 21.3634 18.706 21.2485 18.5015 21.044L15.2287 17.7713C15.0241 17.5667 14.9092 17.2893 14.9091 17V10.4545C14.9091 10.1652 15.024 9.88774 15.2286 9.68316C15.4332 9.47857 15.7107 9.36364 16 9.36364C16.2893 9.36364 16.5668 9.47857 16.7714 9.68316C16.976 9.88774 17.0909 10.1652 17.0909 10.4545V16.5484L20.044 19.5015C20.2485 19.706 20.3634 19.9835 20.3634 20.2727C20.3634 20.562 20.2485 20.8394 20.044 21.044Z" fill="#0065C1"/>
</svg>
