<svg width="80" height="80" viewBox="0 0 80 80" fill="none" xmlns="http://www.w3.org/2000/svg">
<path d="M80 40C80 62.0914 62.0914 80 40 80C17.9086 80 0 62.0914 0 40C0 17.9086 17.9086 0 40 0C62.0914 0 80 17.9086 80 40Z" fill="#FFE3E3"/>
<g clip-path="url(#clip0_3724_867)">
<path fill-rule="evenodd" clip-rule="evenodd" d="M59.9943 25.5337C59.9943 22.4824 57.512 20 54.4607 20C51.8099 20 49.5895 21.874 49.0521 24.3666H41.3766C40.3335 24.3666 39.3527 24.7727 38.6148 25.5104L21.1501 42.971C20.4122 43.7087 20.0057 44.6897 20.0057 45.7331C20.0057 46.7766 20.412 47.7575 21.1498 48.4954L31.5103 58.8558C32.248 59.5935 33.2289 59.9999 34.2723 59.9999C35.3156 59.9999 36.2965 59.5936 37.0343 58.8558L43.0766 52.8135L48.0483 47.842L54.4997 41.3906C55.2374 40.6528 55.6438 39.6719 55.6438 38.6286V30.9398C58.163 30.3958 59.9943 28.1728 59.9943 25.5337ZM35.9294 57.7509L41.9717 51.7087L46.9434 46.7371L53.3948 40.2857C53.8375 39.8431 54.0813 39.2545 54.0813 38.6285V28.2726C54.0813 26.9803 53.0299 25.9289 51.7376 25.9289H50.5089C50.5983 26.8403 50.9965 27.6856 51.6526 28.3417C51.9577 28.6469 51.9577 29.1415 51.6525 29.4465C51.3474 29.7516 50.8529 29.7516 50.5477 29.4465C49.5964 28.4952 49.0358 27.258 48.9425 25.929H41.3766C40.7507 25.929 40.1622 26.1728 39.7196 26.6153L22.2547 44.076C21.8119 44.5186 21.5681 45.1071 21.5681 45.7332C21.568 46.3593 21.8118 46.9479 22.2546 47.3906L32.615 57.7509C33.5288 58.6647 35.0156 58.6647 35.9294 57.7509ZM55.6437 28.2726V29.3265C57.2772 28.8227 58.4319 27.3095 58.4319 25.5337C58.4319 23.3439 56.6504 21.5624 54.4607 21.5624C52.6771 21.5624 51.1646 22.7446 50.6648 24.3665H51.7376C53.8914 24.3665 55.6437 26.1188 55.6437 28.2726Z" fill="#FF3131"/>
<path d="M30.7794 45.6908C31.0845 45.3858 31.0845 44.8911 30.7794 44.5859C30.4742 44.2809 29.9797 44.2809 29.6745 44.5859L27.7939 46.4666C27.4888 46.7716 27.4888 47.2663 27.7939 47.5715L32.434 52.2117C32.5866 52.3642 32.7865 52.4405 32.9864 52.4405C33.1863 52.4405 33.3862 52.3642 33.5388 52.2117C33.8439 51.9066 33.8439 51.4119 33.5388 51.1068L31.7272 49.2951L32.906 48.1163C33.2111 47.8112 33.2111 47.3165 32.906 47.0114C32.6009 46.7064 32.1064 46.7064 31.8011 47.0114L30.6223 48.1903L29.4509 47.0189L30.7794 45.6908Z" fill="#FF3131"/>
<path d="M40.001 45.4268C40.4097 45.4268 40.7535 45.109 40.7799 44.6954C40.8074 44.2648 40.4806 43.8935 40.05 43.866L37.4673 43.7014C37.6844 43.3282 37.8075 42.9059 37.8212 42.4668C37.8427 41.7758 37.5931 41.1338 37.1183 40.659C36.1488 39.6895 34.5407 39.7199 33.5333 40.7272L32.3002 41.9602C32.3 41.9605 32.2998 41.9608 32.2995 41.961C32.2993 41.9613 32.299 41.9615 32.2987 41.9617C31.9937 42.2668 31.9937 42.7615 32.2987 43.0666L36.939 47.7068C37.0915 47.8593 37.2915 47.9356 37.4914 47.9356C37.6913 47.9356 37.8912 47.8593 38.0438 47.7068C38.3488 47.4017 38.3488 46.907 38.0438 46.6019L36.657 45.2152L39.9504 45.4252C39.9675 45.4263 39.9843 45.4268 40.001 45.4268ZM34.6383 41.832C35.0295 41.4407 35.6593 41.4095 36.0135 41.7638C36.1802 41.9304 36.2675 42.1627 36.2595 42.418C36.2513 42.6848 36.1367 42.9475 35.9453 43.1389C35.7886 43.2956 35.5188 43.5677 35.2724 43.8165C35.029 43.5757 34.7649 43.3137 34.6142 43.1631C34.4853 43.0343 34.213 42.7633 33.9592 42.5109L34.6383 41.832Z" fill="#FF3131"/>
<path d="M47.6095 38.1412L49.5647 36.1861C49.8697 35.881 49.8697 35.3863 49.5647 35.0812C49.2595 34.7762 48.765 34.7762 48.4598 35.0812L47.057 36.484L45.8417 35.2687L47.1003 34.0101C47.4054 33.705 47.4054 33.2103 47.1003 32.9052C46.7951 32.6002 46.3006 32.6002 45.9954 32.9052L44.7369 34.1638L43.5215 32.9485L44.9243 31.5457C45.2294 31.2406 45.2294 30.746 44.9243 30.4408C44.6192 30.1358 44.1247 30.1358 43.8195 30.4408L41.8643 32.396C41.5592 32.701 41.5592 33.1957 41.8643 33.5009L44.1841 35.8206L44.1845 35.821C44.1845 35.821 44.1847 35.8212 44.1848 35.8214L46.5045 38.1412C46.6511 38.2876 46.8497 38.37 47.0569 38.37C47.2641 38.37 47.4629 38.2877 47.6095 38.1412Z" fill="#FF3131"/>
<path d="M42.5262 42.9009C42.7333 42.9009 42.932 42.8186 43.0786 42.6721L45.0337 40.7169C45.3388 40.4119 45.3388 39.9172 45.0337 39.612C44.7286 39.3071 44.2341 39.3071 43.9289 39.612L42.5261 41.0148L41.3108 39.7995L42.5695 38.5409C42.8746 38.2358 42.8746 37.7412 42.5695 37.436C42.2645 37.1312 41.7699 37.131 41.4646 37.436L40.206 38.6947L38.9907 37.4794L40.3936 36.0766C40.6987 35.7716 40.6987 35.2769 40.3936 34.9717C40.0884 34.6667 39.5939 34.6667 39.2887 34.9717L37.3335 36.9269C37.0285 37.232 37.0285 37.7266 37.3335 38.0318L41.9737 42.672C42.1202 42.8186 42.3189 42.9009 42.5262 42.9009Z" fill="#FF3131"/>
</g>
<defs>
<clipPath id="clip0_3724_867">
<rect width="40" height="40" fill="white" transform="translate(20 20)"/>
</clipPath>
</defs>
</svg>
