<svg width="16" height="16" viewBox="0 0 16 16" fill="none" xmlns="http://www.w3.org/2000/svg">
<path d="M11.2857 4H5.57137C5.17688 4 4.85707 4.31981 4.85707 4.71429C4.85707 5.10878 5.17688 5.42859 5.57137 5.42859H9.56124L2.20917 12.7807C1.93028 13.0596 1.93028 13.5118 2.20917 13.7908C2.34861 13.9302 2.53141 14 2.71421 14C2.89701 14 3.07985 13.9302 3.21925 13.7908L10.5714 6.43872V10.4286C10.5714 10.8231 10.8912 11.1429 11.2857 11.1429C11.6802 11.1429 12 10.8231 12 10.4286V4.71429C12 4.31981 11.6802 4 11.2857 4Z" fill="#0065C1"/>
</svg>
