<svg width="18" height="18" viewBox="0 0 18 18" fill="none" xmlns="http://www.w3.org/2000/svg">
<path d="M9.00112 6.42969C8.31913 6.42969 7.66508 6.70061 7.18284 7.18284C6.70061 7.66508 6.42969 8.31913 6.42969 9.00112C6.42969 9.6831 6.70061 10.3372 7.18284 10.8194C7.66508 11.3016 8.31913 11.5725 9.00112 11.5725C9.6831 11.5725 10.3372 11.3016 10.8194 10.8194C11.3016 10.3372 11.5725 9.6831 11.5725 9.00112C11.5725 8.31913 11.3016 7.66508 10.8194 7.18284C10.3372 6.70061 9.6831 6.42969 9.00112 6.42969ZM9.00112 4.7154C10.1378 4.7154 11.2278 5.16693 12.0316 5.97066C12.8353 6.77439 13.2868 7.86447 13.2868 9.00112C13.2868 10.1378 12.8353 11.2278 12.0316 12.0316C11.2278 12.8353 10.1378 13.2868 9.00112 13.2868C7.86447 13.2868 6.77439 12.8353 5.97066 12.0316C5.16693 11.2278 4.7154 10.1378 4.7154 9.00112C4.7154 7.86447 5.16693 6.77439 5.97066 5.97066C6.77439 5.16693 7.86447 4.7154 9.00112 4.7154ZM14.5725 4.50112C14.5725 4.78528 14.4597 5.0578 14.2587 5.25873C14.0578 5.45966 13.7853 5.57255 13.5011 5.57255C13.217 5.57255 12.9444 5.45966 12.7435 5.25873C12.5426 5.0578 12.4297 4.78528 12.4297 4.50112C12.4297 4.21696 12.5426 3.94443 12.7435 3.7435C12.9444 3.54257 13.217 3.42969 13.5011 3.42969C13.7853 3.42969 14.0578 3.54257 14.2587 3.7435C14.4597 3.94443 14.5725 4.21696 14.5725 4.50112ZM9.00112 2.14397C6.88055 2.14397 6.53426 2.14997 5.54769 2.19369C4.87569 2.2254 4.42483 2.3154 4.00654 2.47826C3.63454 2.62226 3.36626 2.79454 3.08083 3.08083C2.81255 3.34003 2.60628 3.65647 2.4774 4.00654C2.31454 4.42654 2.22454 4.87654 2.19369 5.54769C2.14912 6.49397 2.14397 6.82483 2.14397 9.00112C2.14397 11.1217 2.14997 11.468 2.19369 12.4545C2.2254 13.1257 2.3154 13.5774 2.4774 13.9948C2.62312 14.3677 2.79454 14.636 3.07912 14.9205C3.36797 15.2085 3.63626 15.3808 4.00483 15.5231C4.42826 15.6868 4.87912 15.7777 5.54769 15.8085C6.49397 15.8531 6.82483 15.8583 9.00112 15.8583C11.1217 15.8583 11.468 15.8523 12.4545 15.8085C13.1248 15.7768 13.5765 15.6868 13.9948 15.5248C14.366 15.38 14.636 15.2077 14.9205 14.9231C15.2094 14.6343 15.3817 14.366 15.524 13.9974C15.6868 13.5748 15.7777 13.1231 15.8085 12.4545C15.8531 11.5083 15.8583 11.1774 15.8583 9.00112C15.8583 6.88055 15.8523 6.53426 15.8085 5.54769C15.7768 4.8774 15.6868 4.42483 15.524 4.00654C15.3948 3.65683 15.1889 3.34051 14.9214 3.08083C14.6623 2.81241 14.3458 2.60612 13.9957 2.4774C13.5757 2.31454 13.1248 2.22454 12.4545 2.19369C11.5083 2.14912 11.1774 2.14397 9.00112 2.14397ZM9.00112 0.429688C11.33 0.429688 11.6205 0.438259 12.5343 0.481116C13.4471 0.523973 14.0685 0.667116 14.6154 0.879688C15.1811 1.0974 15.6577 1.39226 16.1343 1.86797C16.5701 2.29646 16.9074 2.81476 17.1225 3.38683C17.3343 3.93283 17.4783 4.55512 17.5211 5.46797C17.5614 6.38169 17.5725 6.67226 17.5725 9.00112C17.5725 11.33 17.564 11.6205 17.5211 12.5343C17.4783 13.4471 17.3343 14.0685 17.1225 14.6154C16.908 15.1878 16.5707 15.7062 16.1343 16.1343C15.7057 16.57 15.1874 16.9072 14.6154 17.1225C14.0694 17.3343 13.4471 17.4783 12.5343 17.5211C11.6205 17.5614 11.33 17.5725 9.00112 17.5725C6.67226 17.5725 6.38169 17.564 5.46797 17.5211C4.55512 17.4783 3.93369 17.3343 3.38683 17.1225C2.81454 16.9078 2.29614 16.5705 1.86797 16.1343C1.43204 15.7058 1.09477 15.1875 0.879688 14.6154C0.667116 14.0694 0.523973 13.4471 0.481116 12.5343C0.44083 11.6205 0.429688 11.33 0.429688 9.00112C0.429688 6.67226 0.438259 6.38169 0.481116 5.46797C0.523973 4.55426 0.667116 3.93369 0.879688 3.38683C1.09418 2.81441 1.43152 2.29596 1.86797 1.86797C2.29626 1.43189 2.81463 1.0946 3.38683 0.879688C3.93369 0.667116 4.55426 0.523973 5.46797 0.481116C6.38169 0.44083 6.67226 0.429688 9.00112 0.429688Z" fill="#9B9B9B"/>
</svg>
