<svg width="120" height="120" viewBox="0 0 120 120" fill="none" xmlns="http://www.w3.org/2000/svg">
<g clip-path="url(#clip0_3717_2)">
<rect x="3" y="6" width="114" height="114" rx="57" fill="#FFDE6A"/>
<path d="M93.6896 74.7537C94.1474 69.212 93.3033 63.6594 90.8497 58.6688C84.5115 45.7755 85.9653 44.8398 85.7685 32.0435C85.7685 29.4287 83.649 27.3102 81.0352 27.3102C78.4205 27.3102 76.3019 29.4287 76.3019 32.0435C76.3019 33.7317 76.3019 79.8166 76.3019 79.6362C76.3019 80.3741 76.2232 81.0947 76.0776 81.7896V88.6029C76.0776 94.3442 71.4066 99.0161 65.6653 99.0161C61.8522 99.0161 48.7025 99.0161 39.755 99.0161C43.7348 104.551 49.1804 108.886 55.5002 111.511C55.5396 111.527 55.579 111.543 55.6183 111.56C59.4205 113.167 62.3237 116.196 63.8526 119.869C76.1655 119.053 87.4183 114.359 96.3959 106.993L92.8684 94.0338C92.3649 92.1817 92.1873 90.2563 92.3438 88.3438L93.6896 74.7537Z" fill="#EEC096"/>
<path d="M22.1741 27.4759L20.7322 26.1401C18.5102 24.0802 15.0065 24.2139 12.9474 26.4368C10.8884 28.6588 11.0221 32.1625 13.2441 34.2215L22.1741 42.496V27.4759Z" fill="#EEC096"/>
<path d="M69.5207 0H29.0406C25.113 0 21.9178 3.19611 21.9178 7.12372V92.4316C21.9178 96.3593 25.113 99.5554 29.0406 99.5554H69.5207C73.4483 99.5554 76.6444 96.3593 76.6444 92.4316V7.12372C76.6444 3.19611 73.4483 0 69.5207 0V0Z" fill="#0065C1"/>
<path d="M35.6333 5.28259C35.2479 4.70947 35.0226 4.02008 35.0226 3.27759C35.0226 1.82007 35.8906 0.567627 37.1357 0H29.0406C25.1066 0 21.9169 3.1897 21.9169 7.12372V92.4316C21.9169 96.3657 25.1066 99.5544 29.0406 99.5544H37.6465V11.5256C37.6465 9.28528 36.8839 7.14203 35.6333 5.28259Z" fill="#1357D1"/>
<path d="M26.0414 44.9944V92.4315C26.0414 94.0886 27.3845 95.4317 29.0406 95.4317H69.5207C71.1769 95.4317 72.52 94.0886 72.52 92.4315C72.52 90.8037 72.52 67.0403 72.52 44.9944H26.0414Z" fill="#E6F7FE"/>
<path d="M26.0414 44.9944V92.4315C26.0414 94.0886 27.3845 95.4317 29.0406 95.4317H36.136V44.9944H26.0414Z" fill="#D5F1FE"/>
<path d="M42.3459 59.3041C42.3459 61.8996 40.2421 64.0035 37.6465 64.0035C35.051 64.0035 32.9471 61.8996 32.9471 59.3041C32.9471 56.7086 35.051 54.6038 37.6465 54.6038C40.2421 54.6038 42.3459 56.7086 42.3459 59.3041Z" fill="#0065C1"/>
<path d="M42.3459 76.7302C42.3459 79.3257 40.2421 81.4305 37.6465 81.4305C35.051 81.4305 32.9471 79.3257 32.9471 76.7302C32.9471 74.1346 35.051 72.0308 37.6465 72.0308C40.2421 72.0308 42.3459 74.1346 42.3459 76.7302Z" fill="#0065C1"/>
<path d="M37.1155 54.6357C34.77 54.9003 32.9471 56.8879 32.9471 59.304C32.9471 61.8995 35.051 64.0034 37.6465 64.0034C39.2652 64.0034 40.6916 63.1849 41.5366 61.9398C37.4845 62.3967 34.9045 57.8923 37.1155 54.6357Z" fill="#1357D1"/>
<path d="M37.1155 72.0629C34.77 72.3265 32.9471 74.3151 32.9471 76.7302C32.9471 79.3267 35.051 81.4305 37.6465 81.4305C39.2652 81.4305 40.6916 80.6121 41.5366 79.3669C37.5092 79.8201 34.8899 75.3405 37.1155 72.0629Z" fill="#1357D1"/>
<path d="M56.8516 57.3503H50.1792C49.2087 57.3503 48.4214 56.563 48.4214 55.5925C48.4214 54.6212 49.2087 53.8347 50.1792 53.8347H56.8516C57.822 53.8347 58.6094 54.6212 58.6094 55.5925C58.6094 56.563 57.822 57.3503 56.8516 57.3503Z" fill="#11DFEF"/>
<path d="M63.5239 64.7734H50.1792C49.2078 64.7734 48.4214 63.9861 48.4214 63.0156C48.4214 62.0443 49.2078 61.2578 50.1792 61.2578H63.5239C64.4944 61.2578 65.2817 62.0443 65.2817 63.0156C65.2817 63.9861 64.4944 64.7734 63.5239 64.7734Z" fill="#11DFEF"/>
<path d="M56.8516 74.7765H50.1792C49.2087 74.7765 48.4214 73.9901 48.4214 73.0187C48.4214 72.0473 49.2087 71.2609 50.1792 71.2609H56.8516C57.822 71.2609 58.6094 72.0473 58.6094 73.0187C58.6094 73.9901 57.822 74.7765 56.8516 74.7765Z" fill="#11DFEF"/>
<path d="M63.5239 82.1996H50.1792C49.2078 82.1996 48.4214 81.4131 48.4214 80.4418C48.4214 79.4713 49.2078 78.684 50.1792 78.684H63.5239C64.4944 78.684 65.2817 79.4713 65.2817 80.4418C65.2817 81.4131 64.4944 82.1996 63.5239 82.1996Z" fill="#11DFEF"/>
<path d="M69.4969 4.12439H63.481C62.9133 4.12439 62.4537 4.58398 62.4537 5.1507C62.4537 6.51208 61.3405 7.62537 59.98 7.62537H38.5356C37.1742 7.62537 36.0609 6.51208 36.0609 5.1507C36.0609 4.58398 35.6013 4.12439 35.0337 4.12439H29.0178C27.3607 4.12439 26.0176 5.46747 26.0176 7.12366V45.4632H72.4971V7.12366C72.4971 5.46747 71.154 4.12439 69.4969 4.12439Z" fill="#FFE177"/>
<path d="M36.136 5.74396C36.0884 5.55353 36.0609 5.35577 36.0609 5.15161C36.0609 4.58398 35.6013 4.12439 35.0337 4.12439H29.0178C27.3607 4.12439 26.0176 5.46747 26.0176 7.12366V45.4632H36.136V5.74396Z" fill="#FFD338"/>
<path d="M69.4968 4.12439H63.4809C62.9133 4.12439 62.4537 4.58398 62.4537 5.1507C62.4537 6.51208 61.3404 7.62537 59.9799 7.62537H48.1522L72.497 38.1417V7.12366C72.497 5.46747 71.1539 4.12439 69.4968 4.12439Z" fill="#FFEEB0"/>
<path d="M41.6996 18.0953H33.5935C32.623 18.0953 31.8357 17.3089 31.8357 16.3375C31.8357 15.3662 32.623 14.5797 33.5935 14.5797H41.6996C42.67 14.5797 43.4574 15.3662 43.4574 16.3375C43.4574 17.308 42.67 18.0953 41.6996 18.0953Z" fill="#0065C1"/>
<path d="M30.1914 56.5292C28.3796 58.4839 25.3254 58.6011 23.3698 56.7892L15.2848 49.2975C13.3293 47.4856 13.213 44.4314 15.0248 42.4759C16.8366 40.5203 19.8908 40.404 21.8464 42.2159L29.9314 49.7076C31.8861 51.5194 32.0033 54.5736 30.1914 56.5292Z" fill="#EEC096"/>
<path d="M29.9315 49.7075L26.0853 46.1443C26.5916 47.9781 26.1714 50.0215 24.7844 51.5184C23.3964 53.0162 21.3905 53.5903 19.5247 53.2259L23.3699 56.7891C25.3254 58.601 28.3787 58.4838 30.1915 56.5291C32.0033 54.5735 31.8861 51.5193 29.9315 49.7075Z" fill="#EEB37D"/>
<path d="M30.1914 69.6944C28.3796 71.65 25.3254 71.7663 23.3698 69.9544L15.2848 62.4627C13.3293 60.6509 13.213 57.5967 15.0248 55.642C16.8366 53.6864 19.8908 53.5702 21.8464 55.382L29.9314 62.8738C31.8861 64.6856 32.0033 67.7389 30.1914 69.6944Z" fill="#EEC096"/>
<path d="M30.1914 82.8606C28.3796 84.8162 25.3254 84.9325 23.3698 83.1206L15.2848 75.6289C13.3293 73.8171 13.213 70.7629 15.0248 68.8073C16.8366 66.8517 19.8908 66.7354 21.8464 68.5473L29.9314 76.039C31.8861 77.8509 32.0033 80.9051 30.1914 82.8606Z" fill="#EEC096"/>
<path d="M92.8684 94.0327C92.6185 93.1116 92.4491 92.1732 92.3603 91.2266C83.4156 105.912 66.0499 112.731 49.7379 108.491C51.5571 109.66 53.4843 110.672 55.5002 111.51C55.5396 111.527 55.579 111.543 55.6183 111.56C59.4205 113.165 62.3237 116.195 63.8526 119.869C76.1655 119.053 87.4183 114.358 96.3959 106.992L92.8684 94.0327Z" fill="#EEB37D"/>
<path d="M29.9315 62.8738L26.0853 59.3105C26.5916 61.1434 26.1714 63.1869 24.7844 64.6847C23.3964 66.1825 21.3905 66.7565 19.5247 66.3922L23.3699 69.9545C25.3254 71.7663 28.3796 71.65 30.1915 69.6945C32.0033 67.7389 31.8861 64.6856 29.9315 62.8738Z" fill="#EEB37D"/>
<path d="M29.9315 76.0391L26.0853 72.4758C26.5916 74.3096 26.1714 76.3531 24.7844 77.85C23.3964 79.3478 21.3905 79.9227 19.5247 79.5574L23.3699 83.1207C25.3254 84.9325 28.3796 84.8162 30.1915 82.8607C32.0033 80.9051 31.8861 77.8509 29.9315 76.0391Z" fill="#EEB37D"/>
</g>
<path d="M93.6896 74.7537C94.1474 69.212 93.3033 63.6594 90.8497 58.6688C84.5115 45.7755 85.9653 44.8398 85.7685 32.0435C85.7685 29.4287 83.649 27.3102 81.0352 27.3102C78.4205 27.3102 76.3019 29.4287 76.3019 32.0435C76.3019 33.7317 76.3019 79.8166 76.3019 79.6362C76.3019 80.3741 76.2232 81.0947 76.0776 81.7896V88.6029C76.0776 94.3442 71.4066 99.0161 65.6653 99.0161C61.8522 99.0161 48.7025 99.0161 39.755 99.0161C43.7348 104.551 49.1804 108.886 55.5002 111.511C55.5396 111.527 55.579 111.543 55.6183 111.56C59.4205 113.167 62.3237 116.196 63.8526 119.869C76.1655 119.053 87.4183 114.359 96.3959 106.993L92.8684 94.0338C92.3649 92.1817 92.1873 90.2563 92.3438 88.3438L93.6896 74.7537Z" fill="#EEC096"/>
<path d="M22.1741 27.4759L20.7322 26.1401C18.5102 24.0802 15.0065 24.2139 12.9474 26.4368C10.8884 28.6588 11.0221 32.1625 13.2441 34.2215L22.1741 42.496V27.4759Z" fill="#EEC096"/>
<path d="M69.5207 0H29.0406C25.113 0 21.9178 3.19611 21.9178 7.12372V92.4316C21.9178 96.3593 25.113 99.5554 29.0406 99.5554H69.5207C73.4483 99.5554 76.6444 96.3593 76.6444 92.4316V7.12372C76.6444 3.19611 73.4483 0 69.5207 0V0Z" fill="#0065C1"/>
<path d="M35.6333 5.28259C35.2479 4.70947 35.0226 4.02008 35.0226 3.27759C35.0226 1.82007 35.8906 0.567627 37.1357 0H29.0406C25.1066 0 21.9169 3.1897 21.9169 7.12372V92.4316C21.9169 96.3657 25.1066 99.5544 29.0406 99.5544H37.6465V11.5256C37.6465 9.28528 36.8839 7.14203 35.6333 5.28259Z" fill="#1357D1"/>
<path d="M26.0414 44.9944V92.4315C26.0414 94.0886 27.3845 95.4317 29.0406 95.4317H69.5207C71.1769 95.4317 72.52 94.0886 72.52 92.4315C72.52 90.8037 72.52 67.0403 72.52 44.9944H26.0414Z" fill="#E6F7FE"/>
<path d="M26.0414 44.9944V92.4315C26.0414 94.0886 27.3845 95.4317 29.0406 95.4317H36.136V44.9944H26.0414Z" fill="#D5F1FE"/>
<path d="M42.3459 59.3041C42.3459 61.8996 40.2421 64.0035 37.6465 64.0035C35.051 64.0035 32.9471 61.8996 32.9471 59.3041C32.9471 56.7086 35.051 54.6038 37.6465 54.6038C40.2421 54.6038 42.3459 56.7086 42.3459 59.3041Z" fill="#0065C1"/>
<path d="M42.3459 76.7302C42.3459 79.3257 40.2421 81.4305 37.6465 81.4305C35.051 81.4305 32.9471 79.3257 32.9471 76.7302C32.9471 74.1346 35.051 72.0308 37.6465 72.0308C40.2421 72.0308 42.3459 74.1346 42.3459 76.7302Z" fill="#0065C1"/>
<path d="M37.1155 54.6357C34.77 54.9003 32.9471 56.8879 32.9471 59.304C32.9471 61.8995 35.051 64.0034 37.6465 64.0034C39.2652 64.0034 40.6916 63.1849 41.5366 61.9398C37.4845 62.3967 34.9045 57.8923 37.1155 54.6357Z" fill="#1357D1"/>
<path d="M37.1155 72.0629C34.77 72.3265 32.9471 74.3151 32.9471 76.7302C32.9471 79.3267 35.051 81.4305 37.6465 81.4305C39.2652 81.4305 40.6916 80.6121 41.5366 79.3669C37.5092 79.8201 34.8899 75.3405 37.1155 72.0629Z" fill="#1357D1"/>
<path d="M56.8516 57.3503H50.1792C49.2087 57.3503 48.4214 56.563 48.4214 55.5925C48.4214 54.6212 49.2087 53.8347 50.1792 53.8347H56.8516C57.822 53.8347 58.6094 54.6212 58.6094 55.5925C58.6094 56.563 57.822 57.3503 56.8516 57.3503Z" fill="#11DFEF"/>
<path d="M63.5239 64.7734H50.1792C49.2078 64.7734 48.4214 63.9861 48.4214 63.0156C48.4214 62.0443 49.2078 61.2578 50.1792 61.2578H63.5239C64.4944 61.2578 65.2817 62.0443 65.2817 63.0156C65.2817 63.9861 64.4944 64.7734 63.5239 64.7734Z" fill="#11DFEF"/>
<path d="M56.8516 74.7765H50.1792C49.2087 74.7765 48.4214 73.9901 48.4214 73.0187C48.4214 72.0473 49.2087 71.2609 50.1792 71.2609H56.8516C57.822 71.2609 58.6094 72.0473 58.6094 73.0187C58.6094 73.9901 57.822 74.7765 56.8516 74.7765Z" fill="#11DFEF"/>
<path d="M63.5239 82.1996H50.1792C49.2078 82.1996 48.4214 81.4131 48.4214 80.4418C48.4214 79.4713 49.2078 78.684 50.1792 78.684H63.5239C64.4944 78.684 65.2817 79.4713 65.2817 80.4418C65.2817 81.4131 64.4944 82.1996 63.5239 82.1996Z" fill="#11DFEF"/>
<path d="M69.4969 4.12439H63.481C62.9133 4.12439 62.4537 4.58398 62.4537 5.1507C62.4537 6.51208 61.3405 7.62537 59.98 7.62537H38.5356C37.1742 7.62537 36.0609 6.51208 36.0609 5.1507C36.0609 4.58398 35.6013 4.12439 35.0337 4.12439H29.0178C27.3607 4.12439 26.0176 5.46747 26.0176 7.12366V45.4632H72.4971V7.12366C72.4971 5.46747 71.154 4.12439 69.4969 4.12439Z" fill="#FFE177"/>
<path d="M36.136 5.74396C36.0884 5.55353 36.0609 5.35577 36.0609 5.15161C36.0609 4.58398 35.6013 4.12439 35.0337 4.12439H29.0178C27.3607 4.12439 26.0176 5.46747 26.0176 7.12366V45.4632H36.136V5.74396Z" fill="#FFD338"/>
<path d="M69.4968 4.12439H63.4809C62.9133 4.12439 62.4537 4.58398 62.4537 5.1507C62.4537 6.51208 61.3404 7.62537 59.9799 7.62537H48.1522L72.497 38.1417V7.12366C72.497 5.46747 71.1539 4.12439 69.4968 4.12439Z" fill="#FFEEB0"/>
<path d="M41.6996 18.0953H33.5935C32.623 18.0953 31.8357 17.3089 31.8357 16.3375C31.8357 15.3662 32.623 14.5797 33.5935 14.5797H41.6996C42.67 14.5797 43.4574 15.3662 43.4574 16.3375C43.4574 17.308 42.67 18.0953 41.6996 18.0953Z" fill="#0065C1"/>
<path d="M30.1914 56.5292C28.3796 58.4839 25.3254 58.6011 23.3698 56.7892L15.2848 49.2975C13.3293 47.4856 13.213 44.4314 15.0248 42.4759C16.8366 40.5203 19.8908 40.404 21.8464 42.2159L29.9314 49.7076C31.8861 51.5194 32.0033 54.5736 30.1914 56.5292Z" fill="#EEC096"/>
<path d="M29.9315 49.7075L26.0853 46.1443C26.5916 47.9781 26.1714 50.0215 24.7844 51.5184C23.3964 53.0162 21.3905 53.5903 19.5247 53.2259L23.3699 56.7891C25.3254 58.601 28.3787 58.4838 30.1915 56.5291C32.0033 54.5735 31.8861 51.5193 29.9315 49.7075Z" fill="#EEB37D"/>
<path d="M30.1914 69.6944C28.3796 71.65 25.3254 71.7663 23.3698 69.9544L15.2848 62.4627C13.3293 60.6509 13.213 57.5967 15.0248 55.642C16.8366 53.6864 19.8908 53.5702 21.8464 55.382L29.9314 62.8738C31.8861 64.6856 32.0033 67.7389 30.1914 69.6944Z" fill="#EEC096"/>
<path d="M30.1914 82.8606C28.3796 84.8162 25.3254 84.9325 23.3698 83.1206L15.2848 75.6289C13.3293 73.8171 13.213 70.7629 15.0248 68.8073C16.8366 66.8517 19.8908 66.7354 21.8464 68.5473L29.9314 76.039C31.8861 77.8509 32.0033 80.9051 30.1914 82.8606Z" fill="#EEC096"/>
<path d="M92.8684 94.0327C92.6185 93.1116 92.4491 92.1732 92.3603 91.2266C83.4156 105.912 66.0499 112.731 49.7379 108.491C51.5571 109.66 53.4843 110.672 55.5002 111.51C55.5396 111.527 55.579 111.543 55.6183 111.56C59.4205 113.165 62.3237 116.195 63.8526 119.869C76.1655 119.053 87.4183 114.358 96.3959 106.992L92.8684 94.0327Z" fill="#EEB37D"/>
<path d="M29.9315 62.8738L26.0853 59.3105C26.5916 61.1434 26.1714 63.1869 24.7844 64.6847C23.3964 66.1825 21.3905 66.7565 19.5247 66.3922L23.3699 69.9545C25.3254 71.7663 28.3796 71.65 30.1915 69.6945C32.0033 67.7389 31.8861 64.6856 29.9315 62.8738Z" fill="#EEB37D"/>
<path d="M29.9315 76.0391L26.0853 72.4758C26.5916 74.3096 26.1714 76.3531 24.7844 77.85C23.3964 79.3478 21.3905 79.9227 19.5247 79.5574L23.3699 83.1207C25.3254 84.9325 28.3796 84.8162 30.1915 82.8607C32.0033 80.9051 31.8861 77.8509 29.9315 76.0391Z" fill="#EEB37D"/>
<defs>
<clipPath id="clip0_3717_2">
<rect x="3" y="6" width="114" height="114" rx="57" fill="white"/>
</clipPath>
</defs>
</svg>
