<svg width="32" height="33" viewBox="0 0 32 33" fill="none" xmlns="http://www.w3.org/2000/svg">
<path d="M19.0619 7.90784C18.4613 6.34943 17.7064 5.03693 16.8388 4.03058C16.5539 4.01044 16.2672 4 15.9789 4C15.6906 4 15.4038 4.01044 15.1191 4.03058C14.2513 5.03693 13.4964 6.34924 12.896 7.90784C12.7021 8.41101 12.5278 8.93268 12.373 9.46954H19.5848C19.4299 8.93268 19.2556 8.41101 19.0619 7.90784Z" fill="#0065C1"/>
<path d="M12.0208 21.1242H19.9381C20.2408 19.7176 20.4166 18.2289 20.4579 16.7031H11.501C11.5424 18.2291 11.7181 19.7176 12.0208 21.1242Z" fill="#0065C1"/>
<path d="M19.9381 10.875H12.0208C11.7181 12.2816 11.5424 13.7703 11.501 15.2961H20.4579C20.4166 13.7701 20.2408 12.2816 19.9381 10.875Z" fill="#0065C1"/>
<path d="M12.8958 24.093C13.4964 25.6514 14.2513 26.9639 15.1189 27.9702C15.4038 27.9904 15.6906 28.0008 15.9789 28.0008C16.2672 28.0008 16.5539 27.9904 16.8388 27.9702C17.7064 26.9639 18.4613 25.6516 19.0617 24.093C19.2556 23.5898 19.4299 23.0681 19.5847 22.5312H12.373C12.5278 23.0681 12.7021 23.5898 12.8958 24.093Z" fill="#0065C1"/>
<path d="M21.3711 10.8761C21.6547 12.2802 21.8239 13.7666 21.8636 15.2972H27.9576C27.8686 13.7461 27.4863 12.2503 26.8359 10.875C26.8291 10.8752 26.8225 10.8761 26.8157 10.8761H21.3711Z" fill="#0065C1"/>
<path d="M10.5867 21.1242C10.3029 19.7202 10.1337 18.2337 10.0939 16.7031H4C4.08899 18.2542 4.47131 19.75 5.1217 21.1253C5.12848 21.1251 5.13507 21.1242 5.14185 21.1242H10.5867Z" fill="#0065C1"/>
<path d="M21.0414 22.5312C20.5179 24.4833 19.7628 26.2333 18.8213 27.6633C20.94 27.151 22.8837 26.0665 24.4641 24.4861C25.0663 23.8839 25.5958 23.2285 26.0499 22.5312H21.0414Z" fill="#0065C1"/>
<path d="M10.9167 9.46997C11.4404 7.51788 12.1953 5.76794 13.1368 4.33789C11.0183 4.85022 9.07446 5.93475 7.4939 7.51514C6.89185 8.11737 6.3623 8.77271 5.9082 9.46997H10.9167Z" fill="#0065C1"/>
<path d="M10.9167 22.5312H5.9082C6.3623 23.2285 6.89185 23.8839 7.4939 24.4861C9.07446 26.0665 11.0181 27.151 13.1367 27.6633C12.1953 26.2333 11.4404 24.4833 10.9167 22.5312Z" fill="#0065C1"/>
<path d="M21.0414 9.46997H26.0499C25.5958 8.77271 25.0665 8.11737 24.4642 7.51514C22.8837 5.93475 20.94 4.85022 18.8213 4.33789C19.7628 5.76794 20.5179 7.51788 21.0414 9.46997Z" fill="#0065C1"/>
<path d="M21.8636 16.7031C21.8239 18.2337 21.6549 19.7202 21.3711 21.1242H26.8157C26.8225 21.1242 26.8291 21.1251 26.8359 21.1253C27.4863 19.75 27.8686 18.2542 27.9576 16.7031H21.8636Z" fill="#0065C1"/>
<path d="M10.0939 15.2972C10.1337 13.7666 10.3029 12.2802 10.5867 10.8761H5.14185C5.13507 10.8761 5.12848 10.8752 5.1217 10.875C4.47131 12.2503 4.08899 13.7461 4 15.2972H10.0939Z" fill="#0065C1"/>
</svg>
