<svg width="120" height="120" viewBox="0 0 120 120" fill="none" xmlns="http://www.w3.org/2000/svg">
<g clip-path="url(#clip0_3717_300)">
<rect width="114" height="114" rx="57" fill="#C3A7FC"/>
<g clip-path="url(#clip1_3717_300)">
<path d="M119.836 84.9128V46.5188C119.836 42.6583 118.301 38.9559 115.571 36.226C112.84 33.4962 109.136 31.9626 105.274 31.9626H-15V84.9128H119.836Z" fill="#66E78A"/>
<path d="M87.3309 96.9468C93.3149 96.9468 98.1659 92.0977 98.1659 86.1161C98.1659 80.1345 93.3149 75.2854 87.3309 75.2854C81.3468 75.2854 76.4958 80.1345 76.4958 86.1161C76.4958 92.0977 81.3468 96.9468 87.3309 96.9468Z" fill="#767BF6"/>
<path d="M83.7192 56.0309L90.9426 63.2514L95.7581 70.4718H110.205V48.2159C110.205 46.4586 109.506 44.7733 108.263 43.5307C107.02 42.2881 105.334 41.59 103.576 41.59H83.7192V56.0309Z" fill="#767BF6"/>
<path d="M52.4181 41.59H71.6803V56.0309H52.4181V41.59Z" fill="#767BF6"/>
<path d="M23.5247 41.59H42.7869V56.0309H23.5247V41.59Z" fill="#767BF6"/>
<path d="M-5.36865 41.59H13.8936V56.0309H-5.36865V41.59Z" fill="#767BF7"/>
<path opacity="0.3" d="M109.257 32.5186C107.961 32.15 106.621 31.9629 105.273 31.9626H-15V52.3406C58.8517 53.3175 93.9268 41.0183 109.257 32.5186Z" fill="white"/>
<path d="M15.0975 96.9468C21.0815 96.9468 25.9325 92.0977 25.9325 86.1161C25.9325 80.1345 21.0815 75.2854 15.0975 75.2854C9.11345 75.2854 4.26245 80.1345 4.26245 86.1161C4.26245 92.0977 9.11345 96.9468 15.0975 96.9468Z" fill="#767BF7"/>
<path d="M22 88.5C22.5 88.5 23.4 88.7 23 89.5C22.5 90.5 20 93.5 19.5 93C19 92.5 18.5 92 19.5 91.5C20.1324 91.1838 21.1666 89.5 22 88.5Z" fill="#A2C3FF"/>
</g>
</g>
<g clip-path="url(#clip2_3717_300)">
<path d="M119.985 84.9128V46.5188C119.985 42.6583 118.451 38.9559 115.72 36.226C112.989 33.4962 109.285 31.9626 105.423 31.9626H-14.8505V84.9128H119.985Z" fill="#66E78A"/>
<path d="M15.247 96.9468C21.231 96.9468 26.082 92.0977 26.082 86.1161C26.082 80.1345 21.231 75.2854 15.247 75.2854C9.26299 75.2854 4.41199 80.1345 4.41199 86.1161C4.41199 92.0977 9.26299 96.9468 15.247 96.9468Z" fill="#767BF6"/>
<path d="M87.4804 96.9468C93.4644 96.9468 98.3154 92.0977 98.3154 86.1161C98.3154 80.1345 93.4644 75.2854 87.4804 75.2854C81.4964 75.2854 76.6454 80.1345 76.6454 86.1161C76.6454 92.0977 81.4964 96.9468 87.4804 96.9468Z" fill="#767BF7"/>
<path d="M95.0774 88.5C95.5774 88.5 96.4774 88.7 96.0774 89.5C95.5774 90.5 93.0774 93.5 92.5774 93C92.0774 92.5 91.5774 92 92.5774 91.5C93.2098 91.1838 94.244 89.5 95.0774 88.5Z" fill="#A2C3FF"/>
<path d="M83.8688 56.0309L91.0921 63.2514L95.9077 70.4718H110.354V48.2159C110.354 46.4586 109.656 44.7733 108.413 43.5307C107.17 42.2881 105.484 41.59 103.726 41.59H83.8688V56.0309Z" fill="#767BF7"/>
<path d="M52.5676 41.59H71.8299V56.0309H52.5676V41.59Z" fill="#767BF7"/>
<path d="M23.6742 41.59H42.9364V56.0309H23.6742V41.59Z" fill="#767BF7"/>
<path opacity="0.3" d="M109.407 32.5186C108.111 32.15 106.77 31.9629 105.423 31.9626H-14.8505V52.3406C59.0013 53.3175 94.0763 41.0183 109.407 32.5186Z" fill="white"/>
</g>
<defs>
<clipPath id="clip0_3717_300">
<rect width="114" height="114" rx="57" fill="white"/>
</clipPath>
<clipPath id="clip1_3717_300">
<rect width="134.836" height="64.9842" fill="white" transform="translate(-15 31.9626)"/>
</clipPath>
<clipPath id="clip2_3717_300">
<rect width="94" height="65" fill="white" transform="translate(26 32)"/>
</clipPath>
</defs>
</svg>
