<svg width="121" height="114" viewBox="0 0 121 114" fill="none" xmlns="http://www.w3.org/2000/svg">
<rect width="119" height="114" rx="57" fill="#5CED8E"/>
<g clip-path="url(#clip0_3717_4028)">
<g clip-path="url(#clip1_3717_4028)">
<path d="M99.9594 39.6442L81.1433 20.7924V96.3375H106.325V54.9509C106.325 49.2044 104.033 43.6953 99.9594 39.6442Z" fill="#EEC096"/>
<path d="M73.9484 96.3374H106.325V114.324H73.9484V96.3374Z" fill="#699EFE"/>
<path d="M68.6692 42.4934C65.6184 39.4536 60.6813 39.4625 57.6415 42.5134C54.7021 45.4631 54.6002 50.2025 57.4095 53.2768L72.1497 69.3573C67.7193 77.1111 67.9086 86.6727 72.6405 94.2455L73.9484 96.3375H97.3311V71.156L68.6692 42.4934Z" fill="#EEC096"/>
<path d="M79.3446 101.734H82.9421V105.331H79.3446V101.734Z" fill="#0065C1"/>
<path d="M95.5324 71.156C95.0561 71.156 94.5976 70.9667 94.261 70.6287L87.0661 63.4338C86.3757 62.72 86.3956 61.5814 87.1115 60.8903C87.8096 60.2177 88.9137 60.2177 89.6097 60.8903L96.8046 68.0852C97.506 68.7887 97.506 69.9273 96.8046 70.6287C96.4659 70.9667 96.0095 71.156 95.5324 71.156Z" fill="#EEB37D"/>
</g>
</g>
<path d="M99.9594 39.6442L81.1433 20.7924V96.3375H106.325V54.9509C106.325 49.2044 104.033 43.6953 99.9594 39.6442Z" fill="#EEC096"/>
<path d="M16.7072 82.5718L2.48262 45.6446C1.05493 41.9377 2.90184 37.7737 6.61081 36.3453L73.7508 10.4837C77.4577 9.05603 81.6217 10.9029 83.0494 14.6119L97.274 51.5391C98.7017 55.246 96.8548 59.41 93.1458 60.8384L26.0079 86.7C22.2989 88.1277 18.137 86.2787 16.7072 82.5718Z" fill="#F87476"/>
<path d="M88.1758 27.915L7.67371 59.1191L13.0341 73.0339L93.5396 41.8443L88.1758 27.915Z" fill="#C84B4D"/>
<path d="M79.3446 101.734H82.9421V105.331H79.3446V101.734Z" fill="#247DC0"/>
<path d="M2.00061 56.7662V17.1949C2.00061 13.2216 5.22221 10 9.19551 10H81.1432C85.1165 10 88.3381 13.2216 88.3381 17.1949V56.7662C88.3381 60.7395 85.1165 63.9611 81.1432 63.9611H9.19551C5.22221 63.9611 2.00061 60.7395 2.00061 56.7662Z" fill="#0065C1"/>
<path d="M81.1432 10H73.4988L19.5377 63.9611H81.1432C85.1165 63.9611 88.3381 60.7395 88.3381 56.7662V17.1949C88.3381 13.2216 85.1165 10 81.1432 10Z" fill="#1357D1"/>
<path opacity="0.7" d="M9.19568 37H16.3906V40.5975H9.19568V37Z" fill="white"/>
<path opacity="0.7" d="M19.9879 37H27.1821V40.5975H19.9879V37Z" fill="white"/>
<path opacity="0.7" d="M30.7797 37H37.9746V40.5975H30.7797V37Z" fill="white"/>
<path opacity="0.7" d="M41.572 37H48.7669V40.5975H41.572V37Z" fill="white"/>
<path opacity="0.7" d="M75.7472 17.1949H79.3446V22.5911H75.7472V17.1949Z" fill="white"/>
<path opacity="0.7" d="M68.5522 17.1949H72.1497V22.5911H68.5522V17.1949Z" fill="white"/>
<path opacity="0.7" d="M61.3573 17.1949H64.9548V22.5911H61.3573V17.1949Z" fill="white"/>
<path opacity="0.7" d="M54.1631 17.1949H57.7598V22.5911H54.1631V17.1949Z" fill="white"/>
<path d="M9.19568 28.7067V20.073C9.19568 18.4829 10.4836 17.1949 12.0738 17.1949H20.7074C22.2975 17.1949 23.5848 18.4829 23.5848 20.073V28.7067C23.5848 30.2968 22.2975 31.5848 20.7074 31.5848H12.0738C10.4836 31.5848 9.19568 30.2968 9.19568 28.7067Z" fill="#FED957"/>
<path d="M9.19568 22.5911H14.5919V26.1885H9.19568V22.5911Z" fill="#FCAA49"/>
<path d="M18.1893 22.5911H23.5848V26.1885H18.1893V22.5911Z" fill="#FCAA49"/>
<g opacity="0.9">
<path fill-rule="evenodd" clip-rule="evenodd" d="M32.076 50.4466H33.9813V55.8214H35.4525V50.4466H36.5853H38.4906V55.8214H39.9593V50.4466H41.6929L42.3329 49.1445H37.8236H32.076V50.4466Z" fill="white"/>
<path fill-rule="evenodd" clip-rule="evenodd" d="M26.0024 55.0637C26.4512 54.1393 27.2947 53.4331 28.3147 53.1781L29.1337 51.2214L29.9453 53.1585C30.9972 53.3939 31.8677 54.0976 32.3287 55.0441H32.336L29.7737 49.1445H28.5575L26.0024 55.0637Z" fill="white"/>
<path fill-rule="evenodd" clip-rule="evenodd" d="M45.4936 54.512C44.3706 54.512 43.4609 53.6023 43.4609 52.4793C43.4609 51.3563 44.3706 50.4466 45.4936 50.4466C46.6166 50.4466 47.5263 51.3563 47.5263 52.4793C47.5263 53.6023 46.6166 54.512 45.4936 54.512ZM49 52.4793C49 50.5422 47.4307 48.9729 45.4936 48.9729C43.5565 48.9729 41.9872 50.5422 41.9872 52.4793C41.9872 54.4164 43.5565 55.9857 45.4936 55.9857C47.4307 55.9857 49 54.4164 49 52.4793Z" fill="white"/>
<path fill-rule="evenodd" clip-rule="evenodd" d="M9 57.5035L10.1377 57.0082C12.45 56.1598 14.5931 55.8656 17.0819 55.9955C19.1514 56.1034 20.6913 56.4859 22.6014 57.3147L22.9619 57.5035L19.7791 52.6093C17.6115 52.6411 15.0712 53.2517 13.3156 54.0878C12.1827 54.6248 11.582 55.0564 10.6796 55.7748C10.2898 56.0862 9.77975 56.5914 9.44137 56.9543C9.34819 57.0548 9.03678 57.4226 9 57.5035Z" fill="white"/>
<path fill-rule="evenodd" clip-rule="evenodd" d="M10.839 54.6811L11.0597 54.5315C11.1332 54.4678 11.1823 54.4261 11.2534 54.3648C11.707 53.9847 11.9326 53.818 12.4598 53.4551C14.0266 52.3737 16.1378 51.5817 18.0333 51.2482C18.1975 51.2188 18.6708 51.1673 18.8105 51.1232L15.9858 46.7806L10.839 54.6811Z" fill="white"/>
<path fill-rule="evenodd" clip-rule="evenodd" d="M21.5226 52.5062H22.2705V52.9844H22.7462V51.5524H22.2705V50.5961H21.7899V52.0281H21.2112L21.5226 52.5062ZM23.2243 51.5499V52.0281H23.673V51.5499H23.2243ZM22.7462 51.0718H23.673V50.5961H22.7462V51.0718ZM20.3579 50.1179H23.673V46.7881H20.3579V50.1179ZM23.2243 49.6398H20.836V47.2515H23.2243V49.6398ZM21.3117 49.1617H22.7462V47.7297H21.3117V49.1617ZM20.8336 50.5936H20.3579V50.7138L20.8336 51.4494V50.5936ZM19.8797 49.9806V49.1617H19.4016V48.2054H19.8797V46.7881H19.4016V47.7297H18.9234V46.7881H17.8029L18.102 47.2515H18.4453V47.7763L18.7248 48.2054H18.9234V48.5119L19.8797 49.9806ZM23.2243 53.9382H22.4544L22.7658 54.4164H23.2243V53.9382ZM22.2705 53.6538V52.9844H21.834L22.2705 53.6538ZM23.673 54.8945H23.2243V55.1225L23.3861 55.3726L23.673 55.7846V54.8945ZM23.2243 54.8945H23.673V54.4164H23.2243V54.8945ZM23.2243 52.5234V53.0015H23.673V52.5234H23.2243Z" fill="white"/>
<path fill-rule="evenodd" clip-rule="evenodd" d="M29.1263 53.0702C27.7507 53.0898 26.5688 53.8941 26.0073 55.0563L25.892 55.3212L25.6763 55.8214H27.2971C27.5962 55.0588 28.3024 54.5635 29.1263 54.5439C29.1434 54.5439 29.2611 54.5439 29.2808 54.5463C30.0801 54.588 30.7593 55.076 31.0511 55.8214H32.6744L32.4561 55.3212L32.3433 55.0563C31.7965 53.9235 30.6563 53.129 29.3273 53.0726C29.293 53.0702 29.1606 53.0702 29.1263 53.0702Z" fill="white"/>
</g>
<path d="M95.5324 71.156C95.0561 71.156 94.5976 70.9667 94.261 70.6287L87.0661 63.4338C86.3757 62.72 86.3956 61.5814 87.1115 60.8903C87.8096 60.2177 88.9137 60.2177 89.6097 60.8903L96.8046 68.0852C97.506 68.7887 97.506 69.9273 96.8046 70.6287C96.4659 70.9667 96.0095 71.156 95.5324 71.156Z" fill="#EEB37D"/>
<path d="M68.6692 42.4934C65.6184 39.4536 60.6813 39.4625 57.6415 42.5134C54.7021 45.4631 54.6002 50.2025 57.4095 53.2768L72.1497 69.3573C67.7193 77.1111 67.9086 86.6727 72.6405 94.2455L73.9484 96.3375H97.3311V71.156L68.6692 42.4934Z" fill="#EEC096"/>
<defs>
<clipPath id="clip0_3717_4028">
<rect x="7" width="114" height="114" rx="57" fill="white"/>
</clipPath>
<clipPath id="clip1_3717_4028">
<rect width="104.325" height="104.324" fill="white" transform="translate(2 10)"/>
</clipPath>
</defs>
</svg>
