<svg width="22" height="24" viewBox="0 0 22 24" fill="none" xmlns="http://www.w3.org/2000/svg">
<path d="M11.7751 20.3208L2.95417 16.2366L6.16839 14.6053C5.84523 14.2822 5.46489 13.8525 5.19245 13.5234L1.0248 15.6384C0.501296 15.9043 0.51653 16.6583 1.04776 16.9036L13.1378 22.5009C12.6561 21.8315 12.1789 21.0787 11.7751 20.3208Z" fill="#0065C1"/>
<path d="M7.62402 0C4.9618 0 2.7959 2.16591 2.7959 4.82812C2.7959 9.19416 6.95001 13.3985 7.12687 13.5753C7.40141 13.8499 7.84663 13.8499 8.12123 13.5753C8.29804 13.3985 12.4522 9.19416 12.4522 4.82812C12.4521 2.16591 10.2862 0 7.62402 0ZM7.60091 6.86719C6.47657 6.86719 5.56185 5.95247 5.56185 4.82812C5.56185 3.70378 6.47657 2.78906 7.60091 2.78906C8.72526 2.78906 9.63998 3.70378 9.63998 4.82812C9.63998 5.95247 8.72526 6.86719 7.60091 6.86719Z" fill="#0065C1"/>
<path d="M7.60059 4.19531C7.25165 4.19531 6.96777 4.47919 6.96777 4.82812C6.96777 5.17706 7.25165 5.46094 7.60059 5.46094C7.94952 5.46094 8.2334 5.17706 8.2334 4.82812C8.2334 4.47919 7.94952 4.19531 7.60059 4.19531Z" fill="#0065C1"/>
<path d="M16.5303 10.2188C13.8681 10.2188 11.7021 12.3847 11.7021 15.0469C11.7021 19.4129 15.8563 23.6172 16.0331 23.794C16.3077 24.0686 16.7529 24.0687 17.0275 23.794C17.2043 23.6172 21.3584 19.4129 21.3584 15.0469C21.3584 12.3847 19.1925 10.2188 16.5303 10.2188ZM16.5072 17.1094C15.3828 17.1094 14.4681 16.1947 14.4681 15.0703C14.4681 13.946 15.3828 13.0312 16.5072 13.0312C17.6315 13.0312 18.5462 13.946 18.5462 15.0703C18.5462 16.1947 17.6315 17.1094 16.5072 17.1094Z" fill="#0065C1"/>
<path d="M16.5068 14.4375C16.1579 14.4375 15.874 14.7214 15.874 15.0703C15.874 15.4193 16.1579 15.7031 16.5068 15.7031C16.8558 15.7031 17.1396 15.4193 17.1396 15.0703C17.1396 14.7214 16.8558 14.4375 16.5068 14.4375Z" fill="#0065C1"/>
</svg>
