<svg width="32" height="33" viewBox="0 0 32 33" fill="none" xmlns="http://www.w3.org/2000/svg">
<g clip-path="url(#clip0_3923_835)">
<path d="M8.82667 14.8867C10.7467 18.66 13.84 21.74 17.6133 23.6733L20.5467 20.74C20.9067 20.38 21.44 20.26 21.9067 20.42C23.4 20.9133 25.0133 21.18 26.6667 21.18C27.4 21.18 28 21.78 28 22.5133V27.1667C28 27.9 27.4 28.5 26.6667 28.5C14.1467 28.5 4 18.3533 4 5.83333C4 5.1 4.6 4.5 5.33333 4.5H10C10.7333 4.5 11.3333 5.1 11.3333 5.83333C11.3333 7.5 11.6 9.1 12.0933 10.5933C12.24 11.06 12.1333 11.58 11.76 11.9533L8.82667 14.8867Z" fill="#0065C1"/>
</g>
<defs>
<clipPath id="clip0_3923_835">
<rect width="32" height="32" fill="white" transform="translate(0 0.5)"/>
</clipPath>
</defs>
</svg>
