<svg width="12" height="12" viewBox="0 0 12 12" fill="none" xmlns="http://www.w3.org/2000/svg">
<path d="M6.00059 8.30243L9.14899 5.15328L6.00059 8.30243ZM6.00059 8.30243L2.85211 5.15281L2.8521 5.1528C2.65956 4.96026 2.34797 4.96026 2.15544 5.1528L2.15535 5.15289C1.96332 5.3454 1.96332 5.65724 2.15535 5.84976L2.15543 5.84984L5.65199 9.34756L5.65207 9.34764L5.72279 9.27694M6.00059 8.30243L6.34836 9.34764L6.27764 9.27694M5.72279 9.27694C5.87588 9.43042 6.12455 9.43042 6.27764 9.27694M5.72279 9.27694L2.22615 5.77914L5.72279 9.27694ZM6.27764 9.27694L6.34844 9.34756M6.27764 9.27694L9.77428 5.77917C9.92738 5.62569 9.92738 5.37664 9.77428 5.22315L6.34844 9.34756M6.34844 9.34756L9.84501 5.84987L9.84508 5.84979C10.0371 5.65728 10.0371 5.34505 9.84508 5.15253L9.845 5.15245C9.65319 4.9606 9.34116 4.9607 9.14907 5.15319L6.34844 9.34756Z" fill="black" stroke="black" stroke-width="0.2"/>
</svg>
